<?xml version="1.0" standalone="no"?>
<!DOCTYPE svg PUBLIC "-//W3C//DTD SVG 20010904//EN"
 "http://www.w3.org/TR/2001/REC-SVG-20010904/DTD/svg10.dtd">
<svg version="1.0" xmlns="http://www.w3.org/2000/svg"
 width="704.000000pt" height="704.000000pt" viewBox="0 0 704.000000 704.000000"
 preserveAspectRatio="xMidYMid meet">
<metadata>
Created by potrace 1.11, written by Peter Selinger 2001-2013
</metadata>
<g transform="translate(0.000000,704.000000) scale(0.100000,-0.100000)"
fill="#000000" stroke="none">
<path d="M2670 6509 c-36 -4 -92 -10 -125 -13 -33 -4 -67 -9 -75 -11 -8 -2
-26 -6 -40 -9 -14 -2 -43 -7 -65 -11 -84 -15 -245 -58 -356 -95 -192 -65 -315
-120 -539 -243 -50 -27 -253 -164 -278 -187 -12 -11 -25 -20 -31 -20 -5 0 -11
-3 -13 -7 -1 -5 -41 -40 -88 -79 -568 -474 -943 -1195 -1008 -1934 -14 -162
-6 -570 14 -655 2 -11 6 -36 9 -55 14 -108 62 -309 105 -445 209 -652 661
-1222 1255 -1582 356 -215 731 -343 1166 -397 193 -24 612 -25 779 -1 14 2 48
6 75 10 28 3 84 13 125 21 41 9 83 17 92 19 117 24 339 96 476 155 37 16 68
27 70 25 5 -5 -68 -117 -110 -167 -40 -48 -39 -53 3 -62 13 -3 195 -48 404
-101 209 -54 387 -98 395 -100 8 -2 46 -11 84 -20 37 -9 70 -15 71 -13 3 3 81
161 446 905 l60 122 47 -14 c167 -49 313 -37 474 38 89 42 155 90 261 195 178
175 262 274 354 422 264 425 267 815 7 1171 -163 223 -403 340 -729 355 -106
5 -129 9 -122 21 3 5 8 35 11 68 4 33 9 74 11 90 2 17 7 62 10 100 3 39 8 84
10 100 6 38 13 103 20 180 7 73 13 127 21 181 l5 41 -88 30 c-48 17 -118 40
-154 52 l-66 21 -33 88 c-104 271 -312 611 -511 837 -57 65 -217 224 -265 265
-16 14 -54 46 -84 71 -178 150 -445 312 -670 409 -41 17 -88 37 -105 45 -95
42 -370 120 -510 144 -33 6 -69 13 -80 15 -11 2 -49 7 -85 11 -36 4 -76 10
-90 12 -46 8 -474 10 -540 2z"/>
</g>
</svg>
